<?xml version="1.0" encoding="UTF-8" standalone="no"?>
<!DOCTYPE svg PUBLIC "-//W3C//DTD SVG 1.1//EN" "http://www.w3.org/Graphics/SVG/1.1/DTD/svg11.dtd">
<svg width="100%" height="100%" viewBox="0 0 446 379" version="1.1" xmlns="http://www.w3.org/2000/svg" xmlns:xlink="http://www.w3.org/1999/xlink" xml:space="preserve" xmlns:serif="http://www.serif.com/" style="fill-rule:evenodd;clip-rule:evenodd;stroke-linecap:round;stroke-linejoin:round;stroke-miterlimit:1.5;">
    <g transform="matrix(1,0,0,1,-734.259,-56.9244)">
        <g transform="matrix(0.337224,0,0,0.34026,253.364,-906.519)">
            <g id="_4" serif:id="4" transform="matrix(1.17155,0,0,1.17155,127.723,648.421)">
                <g transform="matrix(1,0,0,1,0.989309,0.17347)">
                    <path d="M1444.29,2579.22L1450.22,2585.11C1448.01,2591.58 1445.56,2597.96 1442.87,2604.27C1431.67,2630.53 1415.81,2655.91 1388.64,2668.32C1378.28,2673.05 1366.78,2675.26 1355.45,2675.26L1294.89,2671.44C1293.68,2671.12 1293.23,2671.19 1292.35,2670.2C1292.03,2669.85 1291.86,2669.38 1291.62,2668.96L1291.43,2667.54L1291.8,2666.16L1292.68,2665.02L1293.93,2664.3L1295.36,2664.11L1355.68,2667.92C1372.88,2667.91 1389.9,2661.71 1403.22,2650.16C1422.26,2633.65 1433.46,2610.13 1441.73,2586.77L1444.29,2579.22Z"/>
                </g>
                <g transform="matrix(1,0,0,1,0.989309,0.17347)">
                    <path d="M1451.14,2555.51C1459.54,2522.53 1463.79,2488.28 1466.87,2454.05C1473.59,2379.32 1473.31,2304.16 1471.57,2228.68C1470.61,2186.62 1477.14,2143.41 1501.76,2109.22C1514.4,2091.65 1532.17,2076.78 1554.37,2075.45C1555.43,2075.38 1556.49,2075.36 1557.55,2075.36C1568.19,2075.44 1578.69,2079.24 1587.3,2085.61C1603.09,2097.29 1612.44,2115.54 1618.51,2133.66C1627.95,2161.86 1630.3,2192.14 1630.13,2222.02L1630.12,2223.43C1623.36,2297.69 1620.31,2371.62 1627.72,2445.29C1631.69,2484.81 1638.41,2524.08 1646.3,2563.01L1646.58,2564.39L1646.88,2565.87C1652.48,2602.22 1673.5,2636.35 1706.11,2653.66C1726.54,2664.51 1751.65,2668.39 1772.76,2659.63C1785.45,2654.36 1795.95,2644.41 1802.53,2632.24C1811.13,2616.34 1813.48,2597.8 1813.06,2580.03L1813.06,2579.74C1805.1,2476.79 1800.1,2373.78 1796.35,2270.74L1796.58,2269.32C1797.34,2268.11 1797.35,2268.1 1798.52,2267.26L1799.92,2266.93C1801.34,2267.16 1801.36,2267.17 1802.58,2267.91L1803.43,2269.08L1803.76,2270.47C1807.49,2373.14 1812.45,2475.08 1820.26,2576.81L1820.46,2579.36C1821.16,2605.06 1816.28,2631.83 1798.01,2651.04C1787.6,2661.96 1773.23,2669.02 1758.15,2671.11C1724.58,2675.75 1689.89,2658.45 1667.53,2631.24C1652.61,2613.08 1643.26,2590.68 1639.63,2567.42L1639.59,2567.15C1626.26,2501.99 1616.87,2435.63 1615.95,2368.29C1615.29,2319.85 1618.31,2271.35 1622.71,2223.07C1623.02,2187.4 1620.48,2150.49 1604.17,2118.28C1596.17,2102.48 1583.98,2087.65 1566.1,2083.67C1550.16,2080.12 1533.19,2087.43 1520.79,2098.74C1498.6,2118.99 1487.24,2149.39 1482.14,2179.12C1477.98,2203.42 1479.05,2228.17 1479.47,2252.96C1480.63,2322.58 1480.3,2392.27 1473.61,2461.56C1470.35,2495.26 1466.1,2529.08 1457.38,2561.69L1451.14,2555.51Z"/>
                </g>
                <g transform="matrix(2.53118,0,0,2.50859,-754.884,1803.53)">
                    <path d="M869.224,309.285L773.037,213.098L962.263,23.871C1025.34,86.947 1088.41,150.022 1151.49,213.098L962.263,402.324L871.569,311.629L869.224,309.285ZM874.397,302.296L962.263,390.162L1139.33,213.098L962.263,36.033C903.242,95.055 844.22,154.076 785.199,213.098L874.397,302.296Z" style="fill:rgb(255,245,0);fill-opacity:0.98;"/>
                </g>
                <g id="Queue" transform="matrix(1,0,0,1,0.989309,0.17347)">
                    <path d="M1111.02,2584.82C1189.06,2562.39 1264.92,2615.69 1295.09,2667.65C1205.72,2682.81 1144.89,2654.99 1111.02,2584.82Z" style="fill:white;"/>
                    <clipPath id="_clip1">
                        <path d="M1111.02,2584.82C1189.06,2562.39 1264.92,2615.69 1295.09,2667.65C1205.72,2682.81 1144.89,2654.99 1111.02,2584.82Z"/>
                    </clipPath>
                    <g clip-path="url(#_clip1)">
                        <g id="Rayure" transform="matrix(1,0,0,1,-7.30178,0)">
                            <path d="M1265.89,2695.53C1281.04,2676.4 1299.27,2606.97 1302.39,2579.55L1292.15,2570.88C1288.43,2598.37 1271.7,2669.03 1250.38,2690L1234.61,2690C1253.89,2668.8 1275.68,2598.59 1276.5,2566.65L1259.63,2560.27C1261.47,2594.4 1245.45,2663.08 1217.52,2679.48L1196.48,2679.48C1220.7,2660.4 1248.59,2595 1250.34,2556.51L1229.32,2550.07C1229.15,2586.53 1210.69,2650.28 1182.02,2671.59L1166.24,2665.02C1197.65,2647.17 1213.33,2583.95 1210.04,2544.74L1188.09,2539.83C1194.07,2575.87 1180.9,2637.24 1154.41,2654.5L1137.31,2645.3C1162.69,2629.56 1180.07,2574.32 1176.04,2537.74L1150.93,2535.33C1160.73,2564.42 1150.52,2620.24 1124.17,2636.09L1107.07,2612.43C1138.21,2607.8 1151.79,2550.53 1135.42,2538.68" style="fill:none;stroke:black;stroke-width:7.56px;"/>
                        </g>
                    </g>
                    <path d="M1111.02,2584.82C1189.06,2562.39 1264.92,2615.69 1295.09,2667.65C1205.72,2682.81 1144.89,2654.99 1111.02,2584.82Z" style="fill:none;stroke:black;stroke-width:7.56px;"/>
                </g>
                <g id="Tête" transform="matrix(1,0,0,1,0.989309,0.17347)">
                    <path d="M1799.97,2270.58C1753.97,2076.79 1979.3,1975.89 2038.04,2213.59C2002.73,2279.83 1923.12,2299.88 1799.97,2270.58Z" style="fill:white;stroke:black;stroke-width:7.56px;"/>
                </g>
            </g>
        </g>
        <g transform="matrix(0.337224,0,0,0.34026,253.364,-906.519)">
            <g transform="matrix(1,0,0,1,-911.546,1200.33)">
                <g transform="matrix(0.926273,0,0,0.918008,916.871,-1297.9)">
                    <path d="M2814.5,3638.66L2854.2,3678.36L2882.74,3678.36" style="fill:none;stroke:black;stroke-width:12.81px;"/>
                </g>
                <g transform="matrix(0.926273,0,0,0.918008,916.871,-1297.9)">
                    <path d="M2713.06,3638.52L2780.99,3638.66L2831.9,3587.75L2854.2,3587.75" style="fill:none;stroke:black;stroke-width:12.81px;"/>
                </g>
                <g transform="matrix(1.45549,0,0,1.4425,-622.212,-3267.95)">
                    <rect x="2882.74" y="3697.36" width="18.528" height="18.528"/>
                    <path d="M2901.27,3715.89L2882.74,3715.89L2882.74,3697.36L2901.27,3697.36L2901.27,3715.89ZM2890.89,3705.51L2890.89,3707.74L2893.12,3707.74L2893.12,3705.51L2890.89,3705.51Z"/>
                </g>
                <g transform="matrix(-5.55112e-17,-0.918008,-0.926273,6.93889e-17,7031.48,4700.67)">
                    <path d="M2895.67,3653.24L2905.14,3672.2L2886.19,3672.2L2895.67,3653.24Z"/>
                    <path d="M2898.02,3643.64L2893.31,3643.64L2877.18,3675.89L2878.85,3678.6L2912.48,3678.6L2914.15,3675.89L2898.02,3643.64ZM2895.67,3667.56L2894.78,3665.79L2896.55,3665.79L2895.67,3667.56Z"/>
                </g>
                <g transform="matrix(1.15491,0,0,0.918008,280.421,-1297.9)">
                    <path d="M2783.63,3638.66L2907.9,3638.66" style="fill:none;stroke:black;stroke-width:11.33px;"/>
                </g>
                <g transform="matrix(0.926273,0,0,0.918008,910.646,-1291.73)">
                    <circle cx="2860.92" cy="3581.03" r="6.721" style="stroke:black;stroke-width:12.81px;"/>
                </g>
            </g>
        </g>
    </g>
</svg>
